<mxfile host="app.diagrams.net" agent="Mozilla/5.0 (X11; Linux x86_64) AppleWebKit/537.36 (KHTML, like Gecko) Chrome/138.0.0.0 Safari/537.36" version="28.1.2">
  <diagram name="Page-1" id="GYLGdttKhP09ftB_X1jv">
    <mxGraphModel dx="1599" dy="759" grid="1" gridSize="10" guides="1" tooltips="1" connect="1" arrows="1" fold="1" page="1" pageScale="1" pageWidth="850" pageHeight="1100" math="0" shadow="0">
      <root>
        <mxCell id="0" />
        <mxCell id="1" parent="0" />
        <mxCell id="g0dufgCyntSNFrQQyU3O-19" value="" style="edgeStyle=orthogonalEdgeStyle;rounded=0;orthogonalLoop=1;jettySize=auto;html=1;" edge="1" parent="1">
          <mxGeometry relative="1" as="geometry">
            <mxPoint x="140" y="152" as="sourcePoint" />
            <mxPoint x="250" y="152" as="targetPoint" />
          </mxGeometry>
        </mxCell>
        <mxCell id="g0dufgCyntSNFrQQyU3O-24" value="send submission" style="edgeLabel;html=1;align=center;verticalAlign=middle;resizable=0;points=[];" vertex="1" connectable="0" parent="g0dufgCyntSNFrQQyU3O-19">
          <mxGeometry x="-0.0364" relative="1" as="geometry">
            <mxPoint as="offset" />
          </mxGeometry>
        </mxCell>
        <mxCell id="g0dufgCyntSNFrQQyU3O-1" value="" style="shape=cylinder;whiteSpace=wrap;html=1;boundedLbl=1;backgroundOutline=1;" vertex="1" parent="1">
          <mxGeometry x="79" y="120" width="60" height="80" as="geometry" />
        </mxCell>
        <mxCell id="g0dufgCyntSNFrQQyU3O-20" value="" style="edgeStyle=orthogonalEdgeStyle;rounded=0;orthogonalLoop=1;jettySize=auto;html=1;" edge="1" parent="1" source="g0dufgCyntSNFrQQyU3O-2" target="g0dufgCyntSNFrQQyU3O-3">
          <mxGeometry relative="1" as="geometry" />
        </mxCell>
        <mxCell id="g0dufgCyntSNFrQQyU3O-28" value="check hash" style="edgeLabel;html=1;align=center;verticalAlign=middle;resizable=0;points=[];" vertex="1" connectable="0" parent="g0dufgCyntSNFrQQyU3O-20">
          <mxGeometry x="-0.1323" y="-1" relative="1" as="geometry">
            <mxPoint as="offset" />
          </mxGeometry>
        </mxCell>
        <mxCell id="g0dufgCyntSNFrQQyU3O-22" value="" style="edgeStyle=orthogonalEdgeStyle;rounded=0;orthogonalLoop=1;jettySize=auto;html=1;" edge="1" parent="1">
          <mxGeometry relative="1" as="geometry">
            <mxPoint x="250" y="168" as="sourcePoint" />
            <mxPoint x="140" y="168" as="targetPoint" />
          </mxGeometry>
        </mxCell>
        <mxCell id="g0dufgCyntSNFrQQyU3O-27" value="return comments" style="edgeLabel;html=1;align=center;verticalAlign=middle;resizable=0;points=[];" vertex="1" connectable="0" parent="g0dufgCyntSNFrQQyU3O-22">
          <mxGeometry x="-0.0182" relative="1" as="geometry">
            <mxPoint as="offset" />
          </mxGeometry>
        </mxCell>
        <mxCell id="g0dufgCyntSNFrQQyU3O-2" value="" style="aspect=fixed;sketch=0;html=1;dashed=0;whitespace=wrap;verticalLabelPosition=bottom;verticalAlign=top;fillColor=#2875E2;strokeColor=#ffffff;points=[[0.005,0.63,0],[0.1,0.2,0],[0.9,0.2,0],[0.5,0,0],[0.995,0.63,0],[0.72,0.99,0],[0.5,1,0],[0.28,0.99,0]];shape=mxgraph.kubernetes.icon2;prIcon=api" vertex="1" parent="1">
          <mxGeometry x="250" y="120.5" width="81.27" height="79" as="geometry" />
        </mxCell>
        <mxCell id="g0dufgCyntSNFrQQyU3O-17" value="" style="edgeStyle=orthogonalEdgeStyle;rounded=0;orthogonalLoop=1;jettySize=auto;html=1;" edge="1" parent="1" source="g0dufgCyntSNFrQQyU3O-3" target="g0dufgCyntSNFrQQyU3O-16">
          <mxGeometry relative="1" as="geometry" />
        </mxCell>
        <mxCell id="g0dufgCyntSNFrQQyU3O-3" value="" style="image;sketch=0;aspect=fixed;html=1;points=[];align=center;fontSize=12;image=img/lib/mscae/Cache_Redis_Product.svg;" vertex="1" parent="1">
          <mxGeometry x="450" y="120" width="96.43" height="81" as="geometry" />
        </mxCell>
        <mxCell id="g0dufgCyntSNFrQQyU3O-45" value="" style="edgeStyle=orthogonalEdgeStyle;rounded=0;orthogonalLoop=1;jettySize=auto;html=1;entryX=0.519;entryY=0;entryDx=0;entryDy=0;entryPerimeter=0;" edge="1" parent="1" source="g0dufgCyntSNFrQQyU3O-4" target="g0dufgCyntSNFrQQyU3O-3">
          <mxGeometry relative="1" as="geometry">
            <mxPoint x="1000.5" y="30" as="targetPoint" />
            <Array as="points">
              <mxPoint x="1001" y="100" />
              <mxPoint x="500" y="100" />
            </Array>
          </mxGeometry>
        </mxCell>
        <mxCell id="g0dufgCyntSNFrQQyU3O-46" value="save persona" style="edgeLabel;html=1;align=center;verticalAlign=middle;resizable=0;points=[];" vertex="1" connectable="0" parent="g0dufgCyntSNFrQQyU3O-45">
          <mxGeometry x="0.0018" y="1" relative="1" as="geometry">
            <mxPoint as="offset" />
          </mxGeometry>
        </mxCell>
        <mxCell id="g0dufgCyntSNFrQQyU3O-4" value="" style="sketch=0;points=[[0,0,0],[0.25,0,0],[0.5,0,0],[0.75,0,0],[1,0,0],[0,1,0],[0.25,1,0],[0.5,1,0],[0.75,1,0],[1,1,0],[0,0.25,0],[0,0.5,0],[0,0.75,0],[1,0.25,0],[1,0.5,0],[1,0.75,0]];outlineConnect=0;fontColor=#232F3E;fillColor=#01A88D;strokeColor=#ffffff;dashed=0;verticalLabelPosition=bottom;verticalAlign=top;align=center;html=1;fontSize=12;fontStyle=0;aspect=fixed;shape=mxgraph.aws4.resourceIcon;resIcon=mxgraph.aws4.machine_learning;" vertex="1" parent="1">
          <mxGeometry x="960" y="120.5" width="81" height="81" as="geometry" />
        </mxCell>
        <mxCell id="g0dufgCyntSNFrQQyU3O-33" value="" style="edgeStyle=orthogonalEdgeStyle;rounded=0;orthogonalLoop=1;jettySize=auto;html=1;" edge="1" parent="1" source="g0dufgCyntSNFrQQyU3O-16" target="g0dufgCyntSNFrQQyU3O-32">
          <mxGeometry relative="1" as="geometry" />
        </mxCell>
        <mxCell id="g0dufgCyntSNFrQQyU3O-36" value="yes" style="edgeLabel;html=1;align=center;verticalAlign=middle;resizable=0;points=[];" vertex="1" connectable="0" parent="g0dufgCyntSNFrQQyU3O-33">
          <mxGeometry x="-0.1247" y="1" relative="1" as="geometry">
            <mxPoint as="offset" />
          </mxGeometry>
        </mxCell>
        <mxCell id="g0dufgCyntSNFrQQyU3O-40" value="" style="edgeStyle=orthogonalEdgeStyle;rounded=0;orthogonalLoop=1;jettySize=auto;html=1;" edge="1" parent="1" source="g0dufgCyntSNFrQQyU3O-16" target="g0dufgCyntSNFrQQyU3O-39">
          <mxGeometry relative="1" as="geometry" />
        </mxCell>
        <mxCell id="g0dufgCyntSNFrQQyU3O-41" value="no" style="edgeLabel;html=1;align=center;verticalAlign=middle;resizable=0;points=[];" vertex="1" connectable="0" parent="g0dufgCyntSNFrQQyU3O-40">
          <mxGeometry x="-0.0947" y="-1" relative="1" as="geometry">
            <mxPoint as="offset" />
          </mxGeometry>
        </mxCell>
        <mxCell id="g0dufgCyntSNFrQQyU3O-16" value="Does persona exist?" style="rhombus;whiteSpace=wrap;html=1;verticalAlign=center;labelBackgroundColor=default;sketch=0;" vertex="1" parent="1">
          <mxGeometry x="634.65" y="120" width="125.35" height="80.5" as="geometry" />
        </mxCell>
        <mxCell id="g0dufgCyntSNFrQQyU3O-35" value="" style="edgeStyle=orthogonalEdgeStyle;rounded=0;orthogonalLoop=1;jettySize=auto;html=1;entryX=0.72;entryY=0.99;entryDx=0;entryDy=0;entryPerimeter=0;" edge="1" parent="1" source="g0dufgCyntSNFrQQyU3O-32" target="g0dufgCyntSNFrQQyU3O-2">
          <mxGeometry relative="1" as="geometry">
            <mxPoint x="597.3249999999998" y="279.75" as="targetPoint" />
            <Array as="points">
              <mxPoint x="309" y="280" />
            </Array>
          </mxGeometry>
        </mxCell>
        <mxCell id="g0dufgCyntSNFrQQyU3O-38" value="return persona" style="edgeLabel;html=1;align=center;verticalAlign=middle;resizable=0;points=[];" vertex="1" connectable="0" parent="g0dufgCyntSNFrQQyU3O-35">
          <mxGeometry x="-0.0459" y="2" relative="1" as="geometry">
            <mxPoint as="offset" />
          </mxGeometry>
        </mxCell>
        <mxCell id="g0dufgCyntSNFrQQyU3O-32" value="" style="shape=waypoint;sketch=0;size=6;pointerEvents=1;points=[];fillColor=default;resizable=0;rotatable=0;perimeter=centerPerimeter;snapToPoint=1;verticalAlign=center;labelBackgroundColor=default;" vertex="1" parent="1">
          <mxGeometry x="687.3249999999999" y="269.75" width="20" height="20" as="geometry" />
        </mxCell>
        <mxCell id="g0dufgCyntSNFrQQyU3O-42" value="" style="edgeStyle=orthogonalEdgeStyle;rounded=0;orthogonalLoop=1;jettySize=auto;html=1;" edge="1" parent="1" source="g0dufgCyntSNFrQQyU3O-39" target="g0dufgCyntSNFrQQyU3O-4">
          <mxGeometry relative="1" as="geometry" />
        </mxCell>
        <mxCell id="g0dufgCyntSNFrQQyU3O-43" value="generate&lt;div&gt;persona&lt;/div&gt;" style="edgeLabel;html=1;align=center;verticalAlign=middle;resizable=0;points=[];" vertex="1" connectable="0" parent="g0dufgCyntSNFrQQyU3O-42">
          <mxGeometry x="-0.0488" y="-1" relative="1" as="geometry">
            <mxPoint as="offset" />
          </mxGeometry>
        </mxCell>
        <mxCell id="g0dufgCyntSNFrQQyU3O-39" value="" style="shape=waypoint;sketch=0;size=6;pointerEvents=1;points=[];fillColor=default;resizable=0;rotatable=0;perimeter=centerPerimeter;snapToPoint=1;verticalAlign=center;labelBackgroundColor=default;" vertex="1" parent="1">
          <mxGeometry x="840.675" y="150.25" width="20" height="20" as="geometry" />
        </mxCell>
        <mxCell id="g0dufgCyntSNFrQQyU3O-49" value="" style="endArrow=classic;html=1;rounded=0;exitX=0.5;exitY=1;exitDx=0;exitDy=0;exitPerimeter=0;entryX=0.5;entryY=0;entryDx=0;entryDy=0;entryPerimeter=0;" edge="1" parent="1" source="g0dufgCyntSNFrQQyU3O-2" target="g0dufgCyntSNFrQQyU3O-51">
          <mxGeometry width="50" height="50" relative="1" as="geometry">
            <mxPoint x="440" y="390" as="sourcePoint" />
            <mxPoint x="273" y="310" as="targetPoint" />
          </mxGeometry>
        </mxCell>
        <mxCell id="g0dufgCyntSNFrQQyU3O-53" value="prompt with&lt;div&gt;submission + persona&lt;/div&gt;" style="edgeLabel;html=1;align=center;verticalAlign=middle;resizable=0;points=[];" vertex="1" connectable="0" parent="g0dufgCyntSNFrQQyU3O-49">
          <mxGeometry x="0.0296" relative="1" as="geometry">
            <mxPoint as="offset" />
          </mxGeometry>
        </mxCell>
        <mxCell id="g0dufgCyntSNFrQQyU3O-56" value="" style="edgeStyle=orthogonalEdgeStyle;rounded=0;orthogonalLoop=1;jettySize=auto;html=1;entryX=0.28;entryY=0.99;entryDx=0;entryDy=0;entryPerimeter=0;" edge="1" parent="1" source="g0dufgCyntSNFrQQyU3O-51" target="g0dufgCyntSNFrQQyU3O-2">
          <mxGeometry relative="1" as="geometry">
            <mxPoint x="280" y="200" as="targetPoint" />
            <Array as="points">
              <mxPoint x="220" y="450" />
              <mxPoint x="220" y="280" />
              <mxPoint x="273" y="280" />
            </Array>
          </mxGeometry>
        </mxCell>
        <mxCell id="g0dufgCyntSNFrQQyU3O-57" value="return&lt;div&gt;comment&lt;/div&gt;" style="edgeLabel;html=1;align=center;verticalAlign=middle;resizable=0;points=[];" vertex="1" connectable="0" parent="g0dufgCyntSNFrQQyU3O-56">
          <mxGeometry x="-0.3636" y="-1" relative="1" as="geometry">
            <mxPoint as="offset" />
          </mxGeometry>
        </mxCell>
        <mxCell id="g0dufgCyntSNFrQQyU3O-51" value="" style="sketch=0;points=[[0,0,0],[0.25,0,0],[0.5,0,0],[0.75,0,0],[1,0,0],[0,1,0],[0.25,1,0],[0.5,1,0],[0.75,1,0],[1,1,0],[0,0.25,0],[0,0.5,0],[0,0.75,0],[1,0.25,0],[1,0.5,0],[1,0.75,0]];outlineConnect=0;fontColor=#232F3E;fillColor=#01A88D;strokeColor=#ffffff;dashed=0;verticalLabelPosition=bottom;verticalAlign=top;align=center;html=1;fontSize=12;fontStyle=0;aspect=fixed;shape=mxgraph.aws4.resourceIcon;resIcon=mxgraph.aws4.machine_learning;" vertex="1" parent="1">
          <mxGeometry x="250.27" y="409.5" width="81" height="81" as="geometry" />
        </mxCell>
      </root>
    </mxGraphModel>
  </diagram>
</mxfile>
